
<svg width="300px" height="300px" viewBox="0 0 300 300" version="1.1" xmlns="http://www.w3.org/2000/svg" xmlns:xlink="http://www.w3.org/1999/xlink">
    <g stroke="none" fill="none" fill-opacity="0">
        <rect x="0" y="0" width="300" height="300"></rect>
    </g>
    <g stroke="none" fill="none" fill-opacity="0">
        <rect x="0" y="0" width="300" height="300"></rect>
    </g>
    <g stroke="none" fill="none" fill-opacity="0">
        <rect x="0" y="0" width="300" height="300"></rect>
    </g>
    <g stroke="none" fill="none" fill-opacity="0">
        <rect x="0" y="0" width="300" height="300"></rect>
    </g>
    <g stroke="none" fill="none" fill-opacity="0">
        <rect x="0" y="0" width="300" height="300"></rect>
    </g>
    <g stroke="none" fill="none" fill-opacity="0">
        <rect x="0" y="0" width="300" height="300"></rect>
    </g>
    <g stroke="none" fill="none" fill-opacity="0">
        <rect x="0" y="0" width="300" height="300"></rect>
    </g>
    <g stroke="none" fill="none" fill-opacity="0">
        <rect x="0" y="0" width="300" height="300"></rect>
    </g>
    <g stroke="none" fill="none" fill-opacity="0">
        <rect x="0" y="0" width="300" height="300"></rect>
    </g>
    <g stroke="none" fill="none" fill-opacity="0">
        <rect x="0" y="0" width="300" height="300"></rect>
    </g>
    <g stroke="none" fill="none" fill-opacity="0">
        <rect x="0" y="0" width="300" height="300"></rect>
    </g>
    <g stroke="none" fill="none" fill-opacity="0">
        <rect x="0" y="0" width="300" height="300"></rect>
    </g>
    <g stroke="none" fill="none" fill-opacity="0">
        <rect x="0" y="0" width="300" height="300"></rect>
    </g>
    <g stroke="none" fill="none" fill-opacity="0">
        <rect x="0" y="0" width="300" height="300"></rect>
    </g>
    <g stroke="none" fill="none" fill-opacity="0">
        <rect x="0" y="0" width="300" height="300"></rect>
    </g>
    <g stroke="none" fill="none" fill-opacity="0">
        <rect x="0" y="0" width="300" height="300"></rect>
    </g>
    <g stroke="none" fill="none" fill-opacity="0">
        <rect x="0" y="0" width="300" height="300"></rect>
    </g>
    <g stroke="none" fill="none" fill-opacity="0">
        <rect x="0" y="0" width="300" height="300"></rect>
    </g>
    <g stroke="none" fill="none" fill-opacity="0">
        <rect x="0" y="0" width="300" height="300"></rect>
    </g>
    <g stroke="none" fill="none" fill-opacity="0">
        <rect x="0" y="0" width="300" height="300"></rect>
    </g>
    <g stroke="none" fill="none" fill-opacity="0">
        <rect x="0" y="0" width="300" height="300"></rect>
    </g>
    <g stroke="none" fill="none" fill-opacity="0">
        <rect x="0" y="0" width="300" height="300"></rect>
    </g>
    <g stroke="none" fill="none" fill-opacity="0">
        <rect x="0" y="0" width="300" height="300"></rect>
    </g>
    <g stroke="none" fill="none" fill-opacity="0">
        <rect x="0" y="0" width="300" height="300"></rect>
    </g>
    <g stroke="none" fill="none" fill-opacity="0">
        <rect x="0" y="0" width="300" height="300"></rect>
    </g>
    <g stroke="none" fill="none" fill-opacity="0">
        <rect x="0" y="0" width="300" height="300"></rect>
    </g>
    <g stroke="none" fill="none" fill-opacity="0">
        <rect x="0" y="0" width="300" height="300"></rect>
    </g>
    <g stroke="none" fill="none" fill-opacity="0">
        <rect x="0" y="0" width="300" height="300"></rect>
    </g>
    <g stroke="none" fill="none" fill-opacity="0">
        <rect x="0" y="0" width="300" height="300"></rect>
    </g>
    <g stroke="none" fill="none" fill-opacity="0">
        <rect x="0" y="0" width="300" height="300"></rect>
    </g>
    <g stroke="none" fill="none" fill-opacity="0">
        <rect x="0" y="0" width="300" height="300"></rect>
    </g>
    <g stroke="none" fill="none" fill-opacity="0">
        <rect x="0" y="0" width="300" height="300"></rect>
    </g>
    <g stroke="none" fill="none" fill-opacity="0">
        <rect x="0" y="0" width="300" height="300"></rect>
    </g>
    <g stroke="none" fill="none" fill-opacity="0">
        <rect x="0" y="0" width="300" height="300"></rect>
    </g>
    <g stroke="none" fill="none" fill-opacity="0">
        <rect x="0" y="0" width="300" height="300"></rect>
    </g>
    <g stroke="none" fill="none" fill-opacity="0">
        <rect x="0" y="0" width="300" height="300"></rect>
    </g>
    <g stroke="none" fill="none" fill-opacity="0">
        <rect x="0" y="0" width="300" height="300"></rect>
    </g>
    <g stroke="none" fill="none" fill-opacity="0">
        <rect x="0" y="0" width="300" height="300"></rect>
    </g>
    <g stroke="none" fill="none" fill-opacity="0">
        <rect x="0" y="0" width="300" height="300"></rect>
    </g>
    <g stroke="none" fill="none" fill-opacity="0">
        <rect x="0" y="0" width="300" height="300"></rect>
    </g>
    <g stroke="none" fill="none" fill-opacity="0">
        <rect x="0" y="0" width="300" height="300"></rect>
    </g>
    <g stroke="none" fill="none" fill-opacity="0">
        <rect x="0" y="0" width="300" height="300"></rect>
    </g>
    <g stroke="none" fill="none" fill-opacity="0">
        <rect x="0" y="0" width="300" height="300"></rect>
    </g>
    <g stroke="none" fill="none" fill-opacity="0">
        <rect x="0" y="0" width="300" height="300"></rect>
    </g>
    <g stroke="none" fill="none" fill-opacity="0">
        <rect x="0" y="0" width="300" height="300"></rect>
    </g>
    <g stroke="none" fill="none" fill-opacity="0">
        <rect x="0" y="0" width="300" height="300"></rect>
    </g>
    <g stroke="none" fill="none" fill-opacity="0">
        <rect x="0" y="0" width="300" height="300"></rect>
    </g>
    <g stroke="none" fill="none" fill-opacity="0">
        <rect x="0" y="0" width="300" height="300"></rect>
    </g>
    <g stroke="none" fill="none" fill-opacity="0">
        <rect x="0" y="0" width="300" height="300"></rect>
    </g>
    <g stroke="none" fill="none" fill-opacity="0">
        <rect x="0" y="0" width="300" height="300"></rect>
    </g>
    <g stroke="none" fill="none" fill-opacity="0">
        <rect x="0" y="0" width="300" height="300"></rect>
    </g>
</svg>